<?xml version="1.0" encoding="UTF-8" standalone="no"?>
<!-- Generator: Adobe Illustrator 21.0.0, SVG Export Plug-In . SVG Version: 6.00 Build 0)  -->

<svg
   xmlns:i="&amp;ns_ai;"
   xmlns:dc="http://purl.org/dc/elements/1.1/"
   xmlns:cc="http://creativecommons.org/ns#"
   xmlns:rdf="http://www.w3.org/1999/02/22-rdf-syntax-ns#"
   xmlns:svg="http://www.w3.org/2000/svg"
   xmlns="http://www.w3.org/2000/svg"
   xmlns:sodipodi="http://sodipodi.sourceforge.net/DTD/sodipodi-0.dtd"
   xmlns:inkscape="http://www.inkscape.org/namespaces/inkscape"
   version="1.1"
   id="Layer_1"
   x="0px"
   y="0px"
   viewBox="0 0 78.3 119.8"
   style="enable-background:new 0 0 78.3 119.8;"
   xml:space="preserve"
   inkscape:version="0.91 r13725"
   sodipodi:docname="Keyboard_Inactive_Back.svg"><metadata
     id="metadata21"><rdf:RDF><cc:Work
         rdf:about=""><dc:format>image/svg+xml</dc:format><dc:type
           rdf:resource="http://purl.org/dc/dcmitype/StillImage" /></cc:Work></rdf:RDF></metadata><defs
     id="defs19" /><sodipodi:namedview
     pagecolor="#ffffff"
     bordercolor="#666666"
     borderopacity="1"
     objecttolerance="10"
     gridtolerance="10"
     guidetolerance="10"
     inkscape:pageopacity="0"
     inkscape:pageshadow="2"
     inkscape:window-width="2560"
     inkscape:window-height="1464"
     id="namedview17"
     showgrid="false"
     inkscape:zoom="1.9699499"
     inkscape:cx="-229.89238"
     inkscape:cy="59.900002"
     inkscape:window-x="0"
     inkscape:window-y="0"
     inkscape:window-maximized="1"
     inkscape:current-layer="Layer_1" /><style
     type="text/css"
     id="style3">
	.st0{opacity:0.42;fill:#ACACA5;}
	.st1{fill:none;stroke:#ACACA5;stroke-miterlimit:10;}
	.st2{fill:#FFFFFF;}
</style><switch
     id="switch5"><g
       i:extraneous="self"
       id="g7"><g
         id="g9"><path
           class="st2"
           d="M61.5,45.1H26.3c-0.5,0-1,0.2-1.3,0.5L10.6,59.9c-0.3,0.3-0.5,0.8-0.5,1.3s0.2,1,0.5,1.3L25,76.9     c0.3,0.3,0.8,0.5,1.3,0.5h35.3c1,0,1.8-0.8,1.8-1.8V46.9C63.4,45.9,62.5,45.1,61.5,45.1z M48.8,65.6c0.9,0.9,0.9,2.2,0,3.1     c-0.8,0.8-2.2,0.8-3.1,0l-4.3-4.3L37,68.7c-0.8,0.9-2.2,0.8-3.1,0c-0.8-0.8-0.9-2.2,0-3.1l4.3-4.3L34,56.9     c-0.8-0.8-0.8-2.2,0-3.1c0.9-0.9,2.2-0.8,3.1,0l4.3,4.3l4.4-4.4c0.8-0.8,2.2-0.8,3.1,0c0.8,0.8,0.8,2.2,0,3.1l-4.4,4.4L48.8,65.6     z"
           id="path15" /></g></g></switch></svg>